HIERARCHY
ROOT Hips
{
	OFFSET 0.000000 100.481300 0.000000
	CHANNELS 6 Xposition Yposition Zposition Xrotation Yrotation Zrotation
	JOINT Spine
	{
		OFFSET -0.279200 12.230698 -2.892100
		CHANNELS 3 Xrotation Yrotation Zrotation
		JOINT Spine1
		{
			OFFSET -0.325700 14.269203 -3.374200
			CHANNELS 3 Xrotation Yrotation Zrotation
			JOINT Spine2
			{
				OFFSET -0.372300 16.307602 -0.352600
				CHANNELS 3 Xrotation Yrotation Zrotation
				JOINT Neck
				{
					OFFSET -0.418800 17.814194 8.416900
					CHANNELS 3 Xrotation Yrotation Zrotation
					JOINT Head
					{
						OFFSET 0.000000 7.031097 3.806800
						CHANNELS 3 Xrotation Yrotation Zrotation
						JOINT HeadTop_End
						{
							OFFSET 0.000000 24.646606 12.978600
							CHANNELS 3 Xrotation Yrotation Zrotation
							End Site
							{
								OFFSET 0.000000 27.854965 0.000000
							}
						}
					}
				}
				JOINT LeftShoulder
				{
					OFFSET 16.952999 14.495407 -7.737500
					CHANNELS 3 Xrotation Yrotation Zrotation
					JOINT LeftArm
					{
						OFFSET 9.308998 -2.777710 0.208600
						CHANNELS 3 Xrotation Yrotation Zrotation
						JOINT LeftForeArm
						{
							OFFSET 29.972298 0.000000 0.000000
							CHANNELS 3 Xrotation Yrotation Zrotation
							JOINT LeftHand
							{
								OFFSET 26.026505 0.000000 0.000000
								CHANNELS 3 Xrotation Yrotation Zrotation
								JOINT LeftHandThumb1
								{
									OFFSET 12.240501 -7.147949 9.207150
									CHANNELS 3 Xrotation Yrotation Zrotation
									JOINT LeftHandThumb2
									{
										OFFSET 4.138618 -2.389435 2.389433
										CHANNELS 3 Xrotation Yrotation Zrotation
										JOINT LeftHandThumb3
										{
											OFFSET 2.726913 -1.574387 1.574386
											CHANNELS 3 Xrotation Yrotation Zrotation
											JOINT LeftHandThumb4
											{
												OFFSET 3.941010 -2.275345 2.275342
												CHANNELS 3 Xrotation Yrotation Zrotation
												End Site
												{
													OFFSET -0.005798 5.087799 0.009903
												}
											}
										}
									}
								}
								JOINT LeftHandIndex1
								{
									OFFSET 24.424698 -1.985611 5.953459
									CHANNELS 3 Xrotation Yrotation Zrotation
									JOINT LeftHandIndex2
									{
										OFFSET 6.426697 0.000000 0.000000
										CHANNELS 3 Xrotation Yrotation Zrotation
										JOINT LeftHandIndex3
										{
											OFFSET 5.337898 0.000000 0.000000
											CHANNELS 3 Xrotation Yrotation Zrotation
											JOINT LeftHandIndex4
											{
												OFFSET 4.409401 0.000000 0.000000
												CHANNELS 3 Xrotation Yrotation Zrotation
												End Site
												{
													OFFSET 0.000000 4.409363 0.014373
												}
											}
										}
									}
								}
								JOINT LeftHandMiddle1
								{
									OFFSET 23.810104 0.000000 0.000000
									CHANNELS 3 Xrotation Yrotation Zrotation
									JOINT LeftHandMiddle2
									{
										OFFSET 7.176498 0.000000 0.000000
										CHANNELS 3 Xrotation Yrotation Zrotation
										JOINT LeftHandMiddle3
										{
											OFFSET 6.774902 0.000000 0.000000
											CHANNELS 3 Xrotation Yrotation Zrotation
											JOINT LeftHandMiddle4
											{
												OFFSET 5.403328 0.000000 0.000000
												CHANNELS 3 Xrotation Yrotation Zrotation
												End Site
												{
													OFFSET -0.027702 5.403244 0.017414
												}
											}
										}
									}
								}
								JOINT LeftHandRing1
								{
									OFFSET 22.908401 -0.839279 -6.020567
									CHANNELS 3 Xrotation Yrotation Zrotation
									JOINT LeftHandRing2
									{
										OFFSET 6.337502 0.000000 0.000000
										CHANNELS 3 Xrotation Yrotation Zrotation
										JOINT LeftHandRing3
										{
											OFFSET 5.779297 0.000000 0.000000
											CHANNELS 3 Xrotation Yrotation Zrotation
											JOINT LeftHandRing4
											{
												OFFSET 4.965698 0.000000 0.000000
												CHANNELS 3 Xrotation Yrotation Zrotation
												End Site
												{
													OFFSET 0.000000 4.965668 0.016186
												}
											}
										}
									}
								}
								JOINT LeftHandPinky1
								{
									OFFSET 20.037003 -1.530319 -10.950146
									CHANNELS 3 Xrotation Yrotation Zrotation
									JOINT LeftHandPinky2
									{
										OFFSET 5.254700 0.000000 0.000000
										CHANNELS 3 Xrotation Yrotation Zrotation
										JOINT LeftHandPinky3
										{
											OFFSET 4.810204 0.000000 0.000000
											CHANNELS 3 Xrotation Yrotation Zrotation
											JOINT LeftHandPinky4
											{
												OFFSET 3.647202 0.000000 0.000000
												CHANNELS 3 Xrotation Yrotation Zrotation
												End Site
												{
													OFFSET 0.000000 3.647186 0.011889
												}
											}
										}
									}
								}
							}
						}
					}
				}
				JOINT RightShoulder
				{
					OFFSET -15.141001 14.495407 -7.737500
					CHANNELS 3 Xrotation Yrotation Zrotation
					JOINT RightArm
					{
						OFFSET -9.308998 -2.777710 0.208500
						CHANNELS 3 Xrotation Yrotation Zrotation
						JOINT RightForeArm
						{
							OFFSET -29.972300 0.000000 0.000000
							CHANNELS 3 Xrotation Yrotation Zrotation
							JOINT RightHand
							{
								OFFSET -26.026505 0.000000 0.000000
								CHANNELS 3 Xrotation Yrotation Zrotation
								JOINT RightHandThumb1
								{
									OFFSET -12.240601 -7.148026 9.207092
									CHANNELS 3 Xrotation Yrotation Zrotation
									JOINT RightHandThumb2
									{
										OFFSET -4.138618 -2.389435 2.389433
										CHANNELS 3 Xrotation Yrotation Zrotation
										JOINT RightHandThumb3
										{
											OFFSET -2.726974 -1.574417 1.574421
											CHANNELS 3 Xrotation Yrotation Zrotation
											JOINT RightHandThumb4
											{
												OFFSET -3.941010 -2.275345 2.275343
												CHANNELS 3 Xrotation Yrotation Zrotation
												End Site
												{
													OFFSET 0.005814 5.087799 0.009927
												}
											}
										}
									}
								}
								JOINT RightHandIndex1
								{
									OFFSET -24.424698 -1.985657 5.953444
									CHANNELS 3 Xrotation Yrotation Zrotation
									JOINT RightHandIndex2
									{
										OFFSET -6.426697 0.000000 0.000000
										CHANNELS 3 Xrotation Yrotation Zrotation
										JOINT RightHandIndex3
										{
											OFFSET -5.337898 0.000000 0.000000
											CHANNELS 3 Xrotation Yrotation Zrotation
											JOINT RightHandIndex4
											{
												OFFSET -4.409401 0.000000 0.000000
												CHANNELS 3 Xrotation Yrotation Zrotation
												End Site
												{
													OFFSET 0.000000 4.409363 0.014408
												}
											}
										}
									}
								}
								JOINT RightHandMiddle1
								{
									OFFSET -23.810097 0.000000 0.000000
									CHANNELS 3 Xrotation Yrotation Zrotation
									JOINT RightHandMiddle2
									{
										OFFSET -7.176498 0.000000 0.000000
										CHANNELS 3 Xrotation Yrotation Zrotation
										JOINT RightHandMiddle3
										{
											OFFSET -6.774902 0.000000 0.000000
											CHANNELS 3 Xrotation Yrotation Zrotation
											JOINT RightHandMiddle4
											{
												OFFSET -5.403328 0.000000 0.000000
												CHANNELS 3 Xrotation Yrotation Zrotation
												End Site
												{
													OFFSET 0.027702 5.403244 0.017457
												}
											}
										}
									}
								}
								JOINT RightHandRing1
								{
									OFFSET -22.908302 -0.839325 -6.020576
									CHANNELS 3 Xrotation Yrotation Zrotation
									JOINT RightHandRing2
									{
										OFFSET -6.337502 0.000000 0.000000
										CHANNELS 3 Xrotation Yrotation Zrotation
										JOINT RightHandRing3
										{
											OFFSET -5.779297 0.000000 0.000000
											CHANNELS 3 Xrotation Yrotation Zrotation
											JOINT RightHandRing4
											{
												OFFSET -4.965698 0.000000 0.000000
												CHANNELS 3 Xrotation Yrotation Zrotation
												End Site
												{
													OFFSET 0.000000 4.965668 0.016226
												}
											}
										}
									}
								}
								JOINT RightHandPinky1
								{
									OFFSET -20.037003 -1.530334 -10.950259
									CHANNELS 3 Xrotation Yrotation Zrotation
									JOINT RightHandPinky2
									{
										OFFSET -5.254700 0.000000 0.000000
										CHANNELS 3 Xrotation Yrotation Zrotation
										JOINT RightHandPinky3
										{
											OFFSET -4.810204 0.000000 0.000000
											CHANNELS 3 Xrotation Yrotation Zrotation
											JOINT RightHandPinky4
											{
												OFFSET -3.647202 0.000000 0.000000
												CHANNELS 3 Xrotation Yrotation Zrotation
												End Site
												{
													OFFSET 0.000000 3.647186 0.011917
												}
											}
										}
									}
								}
							}
						}
					}
				}
			}
		}
	}
	JOINT LeftUpLeg
	{
		OFFSET 15.427100 -6.655098 0.678600
		CHANNELS 3 Xrotation Yrotation Zrotation
		JOINT LeftLeg
		{
			OFFSET 4.081073 -39.591068 13.024000
			CHANNELS 3 Xrotation Yrotation Zrotation
			JOINT LeftFoot
			{
				OFFSET -4.081074 -37.707932 -15.979700
				CHANNELS 3 Xrotation Yrotation Zrotation
				JOINT LeftToeBase
				{
					OFFSET 5.346399 -15.068900 20.645000
					CHANNELS 3 Xrotation Yrotation Zrotation
					JOINT LeftToe_End
					{
						OFFSET 2.754700 0.931300 11.300900
						CHANNELS 3 Xrotation Yrotation Zrotation
						End Site
						{
							OFFSET 0.000000 11.669021 0.000000
						}
					}
				}
			}
		}
	}
	JOINT RightUpLeg
	{
		OFFSET -15.569500 -6.655098 0.678600
		CHANNELS 3 Xrotation Yrotation Zrotation
		JOINT RightLeg
		{
			OFFSET -4.081825 -39.591045 13.023800
			CHANNELS 3 Xrotation Yrotation Zrotation
			JOINT RightFoot
			{
				OFFSET 4.081824 -37.707954 -15.979600
				CHANNELS 3 Xrotation Yrotation Zrotation
				JOINT RightToeBase
				{
					OFFSET -5.346400 -15.068900 20.645000
					CHANNELS 3 Xrotation Yrotation Zrotation
					JOINT RightToe_End
					{
						OFFSET -2.754700 0.931300 11.300900
						CHANNELS 3 Xrotation Yrotation Zrotation
						End Site
						{
							OFFSET 0.000000 11.669021 0.000000
						}
					}
				}
			}
		}
	}
}
MOTION
Frames: 5
Frame Time: 0.033333
1.259736 91.527229 -0.004257 51.343399 -93.018366 50.069252 0.336892 0.673690 2.524020 1.164769 1.502847 2.120065 1.116803 1.541905 2.112579 3.339670 8.464691 -4.492316 6.965435 37.458936 -4.367935 -0.000000 0.000001 -0.000000 0.613805 -2.213115 -11.983482 -7.797266 13.443107 -66.876622 0.000003 -6.545290 0.000038 2.693176 -2.055712 -22.041551 7.009031 -2.140904 -13.406306 1.282847 29.108145 3.730872 -1.229207 44.060676 33.697565 -0.000000 -0.000004 -0.000002 4.419736 8.039358 -69.128249 5.721675 5.849638 -88.730721 4.016185 5.556858 -71.694221 -0.000000 -0.000001 -0.000001 3.463125 7.663034 -65.256030 6.355114 5.829377 -94.950373 2.145278 4.531090 -50.653369 -0.000001 0.000001 -0.000002 3.065152 7.526409 -69.046874 6.917395 5.753407 -100.518426 2.535889 4.823976 -55.440564 -0.000001 -0.000001 0.000000 1.930858 7.067634 -68.282385 6.820434 5.770483 -99.552534 2.145355 4.531155 -50.654175 -0.000000 -0.000001 0.000001 3.106788 6.339684 11.519502 9.593819 12.371912 51.907816 -0.000006 40.424912 -0.000010 15.907932 -22.301736 11.227794 -9.080663 3.833732 -4.277522 11.704864 -28.838954 -9.088842 0.819445 -18.133664 -16.347378 0.000001 0.000001 -0.000002 -0.046138 -2.235663 10.900298 0.286893 -1.610876 20.195317 0.075222 -0.834518 10.300363 0.000003 -0.000001 -0.000001 0.176684 -3.373580 12.349446 0.722573 -2.493575 32.315937 0.256244 -1.525004 19.075188 -0.000000 -0.000001 0.000005 0.682902 -4.761268 21.847547 0.997255 -2.881932 38.168494 0.963479 -2.838500 37.491567 0.000001 0.000000 0.000000 0.552023 -4.389438 27.531654 0.696752 -2.452344 31.717640 2.041300 -3.854450 55.798134 -0.000000 -0.000001 -0.000001 -5.070044 12.629848 14.213773 22.141873 -6.102593 2.319862 -15.688185 2.560717 -11.882922 -0.020208 0.000027 -0.000750 -0.000000 0.000001 0.000000 -7.744636 -8.136152 -9.172031 22.580518 9.744086 -3.696522 -13.499123 -1.142280 9.680159 -0.769978 0.000026 0.000006 -0.000000 0.000000 -0.000000 
1.259189 91.518494 -0.021176 50.597980 -93.065453 49.319341 0.313544 0.679814 2.478464 1.138531 1.513449 2.058393 1.094669 1.551852 2.050484 3.306647 8.471227 -4.504837 6.963533 37.480178 -4.409932 -0.000000 0.000000 -0.000000 0.612052 -2.240541 -11.922834 -7.771877 13.502200 -66.927255 -0.000021 -6.513590 0.000008 2.683263 -2.079968 -22.021058 7.009033 -2.140903 -13.406306 1.282844 29.108149 3.730873 -1.229205 44.060673 33.697561 -0.000003 0.000003 -0.000001 4.419736 8.039357 -69.128249 5.721676 5.849639 -88.730714 4.016186 5.556857 -71.694221 0.000001 0.000000 -0.000005 3.463126 7.663034 -65.256030 6.355115 5.829376 -94.950373 2.145278 4.531088 -50.653366 -0.000000 -0.000000 -0.000001 3.065152 7.526409 -69.046874 6.917396 5.753406 -100.518426 2.535889 4.823976 -55.440560 0.000001 -0.000000 0.000000 1.930858 7.067636 -68.282385 6.820434 5.770482 -99.552527 2.145355 4.531156 -50.654182 -0.000000 0.000001 -0.000002 3.112968 6.329779 11.521687 9.243869 12.212576 52.119152 0.000008 40.236931 -0.000009 15.865464 -22.219253 11.195308 -9.412627 4.182524 -3.814358 11.983402 -29.094519 -8.333774 -0.127610 -17.101913 -16.908241 0.000005 -0.000002 -0.000002 -0.145902 -1.768767 11.314294 0.275242 -1.578878 19.776915 0.069003 -0.799557 9.864249 0.000001 0.000000 -0.000002 0.257720 -3.715567 13.146876 0.747253 -2.532132 32.878628 0.226199 -1.435236 17.912595 0.000001 0.000001 0.000003 1.023199 -5.502911 23.243059 0.980307 -2.860267 37.830082 0.857506 -2.694907 35.296464 0.000000 -0.000003 -0.000001 1.053416 -5.294645 29.050113 0.686505 -2.435684 31.477121 1.768614 -3.654703 51.635844 0.000000 -0.000001 -0.000001 -5.069698 12.777435 14.274651 22.144541 -6.092124 2.284375 -15.688466 2.564744 -11.889285 -0.016884 -0.000007 0.001606 -0.000000 0.000001 0.000000 -7.745724 -8.034383 -9.137107 22.612122 9.725406 -3.698199 -13.505480 -1.182788 9.671100 -0.799526 0.000024 -0.000003 -0.000000 0.000000 -0.000000 
1.261291 91.512817 -0.048850 50.621619 -93.102753 49.309195 0.305738 0.684077 2.435895 1.121786 1.519119 2.008776 1.084696 1.557046 2.000697 3.270019 8.481408 -4.525189 7.054893 37.517092 -4.477380 0.000001 -0.000001 -0.000000 0.610127 -2.255289 -11.833022 -7.766326 13.529052 -67.001171 -0.000001 -6.478614 -0.000037 2.674021 -2.066668 -21.988244 7.009033 -2.140902 -13.406307 1.282846 29.108149 3.730872 -1.229208 44.060666 33.697558 -0.000001 -0.000001 -0.000004 4.419736 8.039358 -69.128256 5.721677 5.849639 -88.730714 4.016185 5.556859 -71.694221 0.000000 0.000001 -0.000002 3.463126 7.663035 -65.256037 6.355115 5.829376 -94.950373 2.145278 4.531088 -50.653366 0.000001 0.000001 -0.000002 3.065152 7.526410 -69.046874 6.917396 5.753406 -100.518426 2.535889 4.823974 -55.440553 0.000001 0.000000 -0.000003 1.930858 7.067636 -68.282385 6.820434 5.770483 -99.552527 2.145355 4.531157 -50.654179 -0.000001 0.000000 -0.000001 3.127313 6.314390 11.527020 8.558353 11.622945 52.414021 0.000014 39.998206 -0.000032 15.049386 -21.966225 10.679766 -9.902562 4.666489 -3.148055 12.419020 -29.425848 -7.192507 -1.486883 -15.542249 -17.710957 0.000001 0.000000 0.000001 -0.305615 -1.091199 11.982565 0.260364 -1.536894 19.229819 0.060447 -0.748750 9.231662 0.000001 0.000000 -0.000001 0.394321 -4.216817 14.388133 0.787229 -2.592882 33.772987 0.185342 -1.302093 16.201880 -0.000003 -0.000002 -0.000001 1.594304 -6.574319 25.379740 0.956807 -2.829812 37.357098 0.710633 -2.474629 32.040219 -0.000000 -0.000000 -0.000001 1.889949 -6.597848 31.376564 0.672567 -2.412803 31.147797 1.391482 -3.322120 45.443742 0.000001 -0.000000 0.000000 -5.079295 12.831751 14.334443 22.158816 -6.242773 2.288104 -15.701032 2.550223 -11.863616 -0.021678 0.000020 0.001578 0.000000 0.000000 0.000000 -7.702246 -7.988237 -9.066151 22.608124 9.705870 -3.716405 -13.503141 -1.193719 9.691476 -0.812979 0.000011 0.000003 0.000000 -0.000000 -0.000000 
1.271575 91.507050 -0.061860 51.395951 -93.161171 50.058224 0.324353 0.690452 2.385849 1.152782 1.531233 1.955341 1.118318 1.569120 1.947370 3.199111 8.531395 -4.577531 7.067361 37.665850 -4.527688 -0.000001 0.000003 -0.000000 0.611478 -2.273329 -11.832485 -7.824677 13.480654 -66.989901 0.000025 -6.483857 0.000026 2.609934 -2.028152 -21.930918 7.009031 -2.140900 -13.406305 1.282845 29.108149 3.730875 -1.229207 44.060673 33.697561 0.000001 0.000001 -0.000003 4.419736 8.039358 -69.128249 5.721676 5.849638 -88.730714 4.016186 5.556859 -71.694221 -0.000000 0.000001 0.000000 3.463126 7.663036 -65.256037 6.355113 5.829376 -94.950373 2.145278 4.531088 -50.653369 -0.000001 -0.000000 -0.000001 3.065151 7.526409 -69.046874 6.917397 5.753406 -100.518426 2.535889 4.823977 -55.440560 -0.000001 0.000000 0.000000 1.930857 7.067634 -68.282385 6.820433 5.770482 -99.552534 2.145356 4.531157 -50.654179 -0.000000 0.000000 0.000000 3.146228 6.296970 11.523566 7.301774 10.440535 52.679815 0.000000 39.716304 0.000010 12.392390 -21.447219 9.383006 -10.496633 5.206643 -2.365175 12.984519 -29.754053 -5.762603 -3.079800 -13.586936 -18.648754 -0.000000 0.000001 0.000004 -0.522816 -0.286311 12.887320 0.245762 -1.494333 18.677026 0.051026 -0.688227 8.479734 0.000000 0.000002 0.000001 0.589871 -4.819630 16.001853 0.841928 -2.672789 34.963728 0.141179 -1.139183 14.128706 -0.000001 0.000002 0.000002 2.404101 -7.831702 28.105810 0.930668 -2.795264 36.823934 0.548126 -2.193908 28.051893 0.000001 0.000000 -0.000000 3.068864 -8.116321 34.348584 0.657500 -2.387719 30.788184 0.980398 -2.860395 37.831714 -0.000000 0.000000 -0.000000 -5.035616 12.869169 14.383277 22.176829 -6.276361 2.280878 -15.705474 2.550860 -11.861205 -0.020423 -0.000015 0.000411 0.000000 0.000000 0.000000 -7.628156 -7.973311 -9.005485 22.626265 9.711091 -3.740478 -13.507026 -1.246077 9.668823 -0.811527 -0.000021 -0.000000 0.000000 0.000000 0.000000 
1.314327 91.494080 -0.056207 53.230656 -93.252395 51.877145 0.402783 0.680955 2.316757 1.284855 1.516452 1.901440 1.250872 1.555413 1.894093 3.083931 8.650933 -4.669131 6.748808 38.043303 -4.552114 -0.000000 0.000002 -0.000000 0.617641 -2.324735 -11.994738 -7.986261 13.348590 -66.840170 -0.000019 -6.576998 -0.000027 2.401216 -2.008833 -21.862240 7.009034 -2.140902 -13.406307 1.282845 29.108149 3.730872 -1.229206 44.060676 33.697565 0.000000 0.000005 0.000000 4.419737 8.039357 -69.128256 5.721675 5.849638 -88.730714 4.016186 5.556860 -71.694221 0.000000 0.000001 -0.000003 3.463126 7.663035 -65.256037 6.355115 5.829376 -94.950373 2.145278 4.531088 -50.653366 0.000001 -0.000000 0.000005 3.065151 7.526409 -69.046881 6.917395 5.753406 -100.518426 2.535889 4.823976 -55.440557 -0.000000 -0.000001 0.000003 1.930859 7.067634 -68.282385 6.820434 5.770482 -99.552534 2.145355 4.531158 -50.654179 -0.000001 -0.000000 -0.000002 3.161541 6.279500 11.503444 5.302429 8.862566 52.455405 -0.000008 39.494459 0.000010 7.615733 -20.615968 7.348846 -11.135070 5.727569 -1.551905 13.642657 -30.001445 -4.146854 -4.745991 -11.383445 -19.623195 -0.000000 0.000000 -0.000001 -0.793305 0.562167 14.010673 0.234523 -1.460704 18.241475 0.041920 -0.624184 7.685587 -0.000001 0.000000 0.000001 0.843622 -5.466115 17.916462 0.910833 -2.768597 36.415253 0.099955 -0.960666 11.878687 -0.000001 0.000000 -0.000001 3.440459 -9.132245 31.266700 0.905505 -2.761385 36.305071 0.392227 -1.872444 23.660161 -0.000000 0.000001 -0.000000 4.570859 -9.669343 37.798841 0.643781 -2.364555 30.456893 0.601180 -2.290618 29.408110 -0.000000 0.000001 -0.000001 -4.963460 12.902154 14.417604 22.231456 -6.231546 2.273911 -15.697255 2.551755 -11.868085 -0.016167 0.000015 0.002326 -0.000000 0.000001 -0.000000 -7.520463 -7.990585 -8.995968 22.649297 9.702068 -3.756388 -13.504961 -1.217042 9.683504 -0.810618 -0.000006 0.000000 0.000000 0.000000 -0.000000 
